# xmcd
#
# Track frame offsets:
# 150
# 16315
# 32730
# 45138
# 56621
# 68585
# 78125
# 90284
# 106084
# 117220
#
# Disc length: 1740 seconds
#
#
# Revision: 0
# Processed by: cddbd v1.4PL0 Copyright (c) Steve Scherf et al.
# Submitted via: FreeRIP 2.00 
#
DISCID=6206ca0a
DTITLE=George Jones - With My Very Special Guests
DYEAR=1978
DGENRE=Country
TTITLE0=Night Life (with Waylon Jennings)
TTITLE1=Bartender's Blues (with James Taylor)
TTITLE2=Here We Are (with Emmylou Harris)
TTITLE3=I've Turned You To Stone (with Linda Ronstadt)
TTITLE4=It Sure Was Good (with Tammy Wynette)
TTITLE5=I Gotta Get Drunk (with Willie Nelson)
TTITLE6=Proud Mary (with Johnny Paycheck)
TTITLE7=Stranger In The House (with Elvis Costello)
TTITLE8=I Still Hold Her Body (But I Think I've Lost Her Mind) (with Dennis and Ray of Dr Hook)
TTITLE9=Will The Circle Be Unbroken (with Pop and Mavis Staples)
EXTD=Epic JE 35544
EXTT0=
EXTT1=
EXTT2=
EXTT3=
EXTT4=
EXTT5=
EXTT6=
EXTT7=
EXTT8=
EXTT9=
PLAYORDER=
